HIERARCHY
ROOT Hips
{
	OFFSET 0.00000 0.00000 0.00000
	CHANNELS 6 Xposition Yposition Zposition Yrotation Zrotation Xrotation 
	JOINT Lumbar
	{
		OFFSET 0 0 0
		CHANNELS 3 Zrotation Xrotation Yrotation
		JOINT Neck
		{
			OFFSET 0.00 0.2701 0.00
			CHANNELS 3 Zrotation Xrotation Yrotation
			End Site
			{
				OFFSET 0.00 0.1379 0.00
			}
		}
		JOINT RightShoulder
		{
			OFFSET 0.0119 0.2289 0.1181
			CHANNELS 3 Zrotation Xrotation Yrotation
			JOINT RightElbow
			{
				OFFSET 0.00 -0.1475 0.00
				CHANNELS 2 Zrotation Yrotation
				JOINT RightWrist
				{
					OFFSET 0.00 -0.1605 0.00
					CHANNELS 2 Zrotation Xrotation
					End Site
					{
						OFFSET 0.0040 -0.1068 0.0006
					}
				}
			}
		}
		JOINT LeftShoulder
		{
			OFFSET 0.0119 0.2289 -0.1181
			CHANNELS 3 Zrotation Xrotation Yrotation
			JOINT LeftElbow
			{
				OFFSET 0.00 -0.1475 0.00
				CHANNELS 2 Zrotation Yrotation
				JOINT LeftWrist
				{
					OFFSET 0.00 -0.1605 0.00
					CHANNELS 2 Zrotation Xrotation
					End Site
					{
						OFFSET 0.0040 -0.1068 -0.0006
					}
				}
			}
		}
	}
	JOINT RightHip
	{
		OFFSET 0.0316 -0.0424 0.0458
		CHANNELS 3 Zrotation Xrotation Yrotation
		JOINT RightKnee
		{
			OFFSET 0.00 -0.2438 0.00
			CHANNELS 1 Zrotation
			JOINT RightAnkle
			{
				OFFSET 0.00 -0.2449 0.00
				CHANNELS 3 Zrotation Xrotation Yrotation
				End Site
				{
					OFFSET 0.1237 -0.0542 0.0051
				}
			}
		}
	}
	JOINT LeftHip
	{
		OFFSET 0.0316 -0.0424 -0.0458
		CHANNELS 3 Zrotation Xrotation Yrotation
		JOINT LeftKnee
		{
			OFFSET 0.00 -0.2438 0.00
			CHANNELS 1 Zrotation
			JOINT LeftAnkle
			{
				OFFSET 0.00 -0.2449 0.00
				CHANNELS 3 Zrotation Xrotation Yrotation
				End Site
				{
					OFFSET 0.1237 -0.0542 -0.0051
				}
			}
		}
	}
}
MOTION
Frames: 19
Frame Time: 0.02
-1.09234 -0.39091 -0.05199 739.59565 8.40803 -2.81167 1.29427 4.40034 -10.72834 0.88074 5.03749 -2.11994 27.77307 11.50035 36.14763 124.94006 92.92926 -19.67782 -7.45 20.21791 -2.09886 -34.04072 50.52983 -89.6548 -7.63796 8.38527 68.55867 0.048 -14.19204 -50.00731 -14.45899 0.21208 -2.45745 88.31949 -7.72017 35.91293 -71.35606 -19.51565 1.84246 3.76061
-1.0929 -0.39157 -0.05146 739.6541 9.133 -2.77967 0.80321 4.27766 -10.69648 0.80498 5.08445 -2.11994 27.25098 11.38632 37.00706 125.63337 93.2244 -17.91931 -7.33599 20.59764 -2.95293 -33.66851 49.14123 -89.54869 -7.36803 7.67743 67.81819 -0.01128 -14.29202 -49.87715 -14.52139 0.21377 -2.45931 87.5363 -7.75394 35.93943 -71.00872 -19.48984 1.84323 3.75965
-1.09351 -0.3923 -0.05086 739.71797 9.88641 -2.76599 0.271 4.13943 -10.56823 0.66218 5.34531 -2.11994 26.70592 11.15406 37.77782 126.30449 93.47295 -15.58851 -7.06987 20.79673 -3.71089 -33.25739 48.39743 -88.91799 -6.89622 6.73841 67.03071 -0.09281 -14.48304 -49.71986 -14.5864 0.21913 -2.45969 86.70412 -7.79519 35.99407 -70.62295 -19.4605 1.8435 3.75825
-1.0941 -0.393 -0.05031 739.77987 10.62288 -2.74529 -0.23979 4.00525 -10.47627 0.55177 5.53435 -2.11994 26.18146 10.96884 38.57003 126.98363 93.64457 -13.53183 -6.88112 21.08117 -4.50292 -32.8751 47.36449 -88.54583 -6.52472 5.92352 66.27236 -0.16046 -14.62219 -49.57728 -14.65088 0.22246 -2.46094 85.90554 -7.83293 36.03338 -70.25894 -19.43349 1.84402 3.75709
-1.09468 -0.39369 -0.04972 739.83901 11.37752 -2.7182 -0.76366 3.8828 -10.41515 0.43192 5.61677 -2.11994 25.61641 10.80747 39.44812 127.67119 94.20073 -11.39786 -6.65722 21.34742 -5.33876 -32.43733 46.30815 -88.10359 -6.11645 5.02323 65.48083 -0.24339 -14.80389 -49.42466 -14.71297 0.2272 -2.46144 85.05918 -7.87141 36.08273 -69.87599 -19.40353 1.84446 3.75576
-1.09529 -0.3944 -0.04918 739.90594 12.10049 -2.70965 -1.26902 3.733 -10.26771 0.3165 5.97151 -2.11994 25.13028 10.57066 40.1235 128.33544 93.968 -9.29907 -6.47036 21.60924 -6.05841 -32.11005 45.45741 -87.67643 -5.73709 4.24783 64.74713 -0.30035 -14.92001 -49.28646 -14.78036 0.22996 -2.4631 84.30002 -7.90978 36.11874 -69.52404 -19.37873 1.84494 3.75466
-1.09604 -0.39515 -0.04875 739.98676 12.72997 -2.74127 -1.71814 3.5068 -9.90002 0.2277 7.03004 -2.11994 24.85931 10.14727 40.26434 128.94771 91.42152 -7.39809 -6.42584 21.91685 -6.49122 -32.08537 45.0041 -87.42639 -5.48679 3.87342 64.18809 -0.27628 -14.82407 -49.19527 -14.86346 0.22583 -2.46867 83.80236 -7.94911 36.10304 -69.26266 -19.3705 1.84586 3.75443
-1.09681 -0.39591 -0.04837 740.07628 13.32604 -2.79214 -2.14601 3.25466 -9.45002 0.1463 8.35422 -2.11994 24.66987 9.65416 40.20244 129.53585 88.11148 -5.56179 -6.42372 22.22448 -6.80813 -32.17606 44.73862 -87.2065 -5.27277 3.63336 63.68845 -0.22613 -14.6611 -49.11942 -14.95141 0.2197 -2.47539 83.39293 -7.98759 36.07417 -69.03479 -19.36736 1.84682 3.75442
-1.09754 -0.39665 -0.04796 740.16614 13.93692 -2.8386 -2.58036 3.0174 -9.04116 0.06287 9.55426 -2.11994 24.44796 9.19793 40.23057 130.13095 85.25078 -3.7236 -6.40002 22.52383 -7.17093 -32.22346 44.39618 -86.96585 -5.04218 3.33289 63.15929 -0.19044 -14.5342 -49.03623 -15.03603 0.21486 -2.48135 82.93712 -8.0243 36.0569 -68.79441 -19.36088 1.84763 3.75419
-1.09839 -0.39746 -0.04757 740.23866 14.55132 -2.86756 -3.03006 2.76613 -8.61252 -0.02894 10.77704 -2.11994 24.20524 8.7146 40.26579 130.74326 81.96002 -1.74854 -6.37948 22.85162 -7.5591 -32.2327 44.04066 -86.73607 -4.80441 3.02191 62.63861 -0.14433 -14.38533 -48.95375 -15.12568 0.20854 -2.48829 82.5049 -8.06997 36.01798 -68.5408 -19.35846 1.84896 3.7544
-1.09901 -0.39812 -0.04717 740.34853 15.14892 -2.9371 -3.44156 2.53861 -8.20762 -0.1002 12.0117 -2.11994 24.0264 8.27396 40.23777 131.31289 79.37944 -0.08204 -6.36602 23.12265 -7.86809 -32.34694 43.7486 -86.49867 -4.59343 2.76726 62.11565 -0.1137 -14.26692 -48.87366 -15.20576 0.20477 -2.49347 82.04665 -8.09717 36.01932 -68.32372 -19.34906 1.84926 3.7538
-1.09896 -0.39841 -0.04672 740.56595 15.71759 -3.11554 -3.75768 2.37878 -7.88211 -0.12009 13.2213 -2.11994 23.99682 7.95836 40.09734 131.78261 78.98927 0.74944 -6.34765 23.23701 -7.98703 -32.74427 43.58353 -86.22544 -4.44381 2.64123 61.56697 -0.12947 -14.23255 -48.79771 -15.25993 0.20861 -2.49356 81.48268 -8.06932 36.1467 -68.19508 -19.31737 1.84628 3.75059
-1.09868 -0.39856 -0.04628 740.81931 16.26838 -3.3337 -4.03481 2.2447 -7.58517 -0.11854 14.43065 -2.11994 24.0303 7.69069 39.89853 132.20796 79.3319 1.26927 -6.33771 23.29514 -8.03054 -33.23949 43.47324 -85.94737 -4.32165 2.56749 61.0155 -0.16192 -14.23315 -48.72361 -15.304 0.21503 -2.49187 80.89224 -8.02362 36.31294 -68.10297 -19.27889 1.84234 3.74663
-1.09851 -0.39877 -0.04585 741.05202 16.82145 -3.53264 -4.3265 2.10157 -7.27953 -0.12415 15.63513 -2.11994 24.03958 7.40802 39.71832 132.64603 79.31222 1.92834 -6.33469 23.37993 -8.10908 -33.67611 43.33589 -85.6791 -4.19037 2.4669 60.46823 -0.18869 -14.22894 -48.64788 -15.35152 0.2202 -2.49096 80.32195 -7.98887 36.45335 -67.99716 -19.24468 1.83913 3.74322
-1.09828 -0.39898 -0.04534 741.30367 17.39913 -3.73746 -4.63139 1.94596 -6.95213 -0.1405 16.8726 -2.11994 24.03238 7.09372 39.56361 133.11521 79.39202 2.59652 -6.29022 23.46002 -8.18098 -34.17641 43.21386 -85.37986 -4.04595 2.38322 59.90897 -0.20741 -14.17829 -48.57572 -15.40391 0.22569 -2.49015 79.71952 -7.9423 36.62695 -67.88048 -19.20549 1.83471 3.73891
-1.09815 -0.39917 -0.04501 741.5238 17.92041 -3.93887 -4.8991 1.82326 -6.67888 -0.12942 18.03464 -2.11994 24.07405 6.8582 39.34565 133.50871 79.44543 3.17138 -6.33036 23.53644 -8.24952 -34.56573 43.07139 -85.14315 -3.9351 2.27582 59.37532 -0.24608 -14.23023 -48.4967 -15.44384 0.23108 -2.48876 79.17776 -7.91591 36.7419 -67.79441 -19.17516 1.83256 3.73631
-1.09832 -0.39932 -0.04519 741.65239 18.3018 -4.12427 -5.07974 1.78119 -6.54044 -0.04869 19.0143 -2.11994 24.22892 6.82396 38.95915 133.70968 79.2789 3.5733 -6.63012 23.61802 -8.33484 -34.62518 42.84861 -85.08542 -3.90946 2.08307 58.89464 -0.34541 -14.58575 -48.39545 -15.45067 0.23618 -2.48582 78.79932 -7.95144 36.67624 -67.78593 -19.16987 1.83693 3.73859
-1.0986 -0.39946 -0.04556 741.74733 18.62523 -4.30433 -5.22341 1.77214 -6.45728 0.05877 19.91219 -2.11994 24.43123 6.86841 38.51351 133.83509 79.05931 3.89062 -7.00984 23.69756 -8.41855 -34.56904 42.60421 -85.0898 -3.91668 1.8654 58.44269 -0.4626 -15.03849 -48.28765 -15.44548 0.24098 -2.48244 78.48412 -8.00763 36.55204 -67.80634 -19.17406 1.8436 3.74267
-1.09885 -0.39961 -0.04586 741.85462 18.96761 -4.48455 -5.37996 1.75078 -6.35448 0.15487 20.82876 -2.11994 24.616 6.88036 38.10141 133.99156 78.84552 4.24157 -7.33362 23.77708 -8.49864 -34.56474 42.37565 -85.06221 -3.90922 1.66305 57.98972 -0.56539 -15.42777 -48.18473 -15.44659 0.24552 -2.47954 78.14692 -8.05305 36.46068 -67.81216 -19.17443 1.8492 3.74587
